<svg xmlns="http://www.w3.org/2000/svg" viewBox="0 0 1994 747">
  <g transform="translate(228, 674) scale(1, -1)">
    <path fill="#1A3057" d="M187 261 199 283H471L478 261ZM704 12Q709 12 709.0 6.0Q709 0 704 0Q675 0 644.5 2.0Q614 4 585 4Q553 4 529.5 2.0Q506 0 477 0Q473 0 473.0 6.0Q473 12 477 12Q526 12 537.0 27.5Q548 43 526 89L311 536L343 584L148 132Q122 71 145.0 41.5Q168 12 231 12Q236 12 236.0 6.0Q236 0 231 0Q201 0 176.0 2.0Q151 4 113 4Q76 4 53.5 2.0Q31 0 -1 0Q-5 0 -5.0 6.0Q-5 12 -1 12Q26 12 46.0 22.5Q66 33 84.5 61.0Q103 89 125 141L338 632Q339 635 345.0 635.5Q351 636 352 632L592 137Q616 88 633.5 60.5Q651 33 668.0 22.5Q685 12 704 12Z"/>
    <path fill="#1A3057" transform="translate(681, 0)" d="M200 85Q200 55 207.5 39.5Q215 24 239.0 18.0Q263 12 311 12Q314 12 314.0 6.0Q314 0 311 0Q279 0 241.5 1.0Q204 2 160 2Q127 2 95.5 1.0Q64 0 39 0Q37 0 37.0 6.0Q37 12 39 12Q74 12 91.5 17.0Q109 22 114.5 37.0Q120 52 120 81V544Q120 573 114.5 587.5Q109 602 91.5 607.5Q74 613 39 613Q37 613 37.0 619.0Q37 625 39 625Q64 625 95.0 623.5Q126 622 159 622Q185 622 222.5 625.0Q260 628 298 628Q356 628 402.5 611.0Q449 594 477.0 558.0Q505 522 506 464Q506 412 487.0 374.0Q468 336 435.5 311.0Q403 286 363.5 274.0Q324 262 286 262Q274 262 261.5 263.0Q249 264 238 267Q234 268 235.5 274.5Q237 281 240 280Q249 278 258.5 277.0Q268 276 275 276Q313 276 345.0 294.0Q377 312 397.0 349.5Q417 387 417 443Q417 497 398.5 534.0Q380 571 347.0 591.0Q314 611 271 611Q243 611 227.5 607.0Q212 603 206.0 588.0Q200 573 200 542Z"/>
    <path fill="#1A3057" transform="translate(1202, 0)" d="M208 81Q208 52 213.5 37.0Q219 22 236.5 17.0Q254 12 289 12Q291 12 291.0 6.0Q291 0 289 0Q264 0 233.5 1.0Q203 2 167 2Q132 2 101.0 1.0Q70 0 45 0Q43 0 43.0 6.0Q43 12 45 12Q80 12 98.0 17.0Q116 22 122.0 37.0Q128 52 128 81V544Q128 573 122.0 587.5Q116 602 98.0 607.5Q80 613 45 613Q43 613 43.0 619.0Q43 625 45 625Q70 625 101.0 623.5Q132 622 167 622Q203 622 234.0 623.5Q265 625 289 625Q291 625 291.0 619.0Q291 613 289 613Q254 613 237.0 607.0Q220 601 214.0 586.0Q208 571 208 542Z"/>
  </g>
  <rect fill="#B91C1C" x="5" y="689" width="1984" height="55" rx="2"/>
</svg>
