<svg xmlns="http://www.w3.org/2000/svg" viewBox="0 0 120 40" width="120" height="40">
  <!-- ART Logo - Light Mode -->
  <defs>
    <style>
      .art-letter { fill: #1b2127; }
      .art-bar { fill: #B91C1C; }
    </style>
  </defs>
  <!-- A -->
  <path class="art-letter" d="M2 36 L14 4 L18 4 L30 36 L25 36 L22 28 L10 28 L7 36 Z M11.5 24 L20.5 24 L16 10 Z"/>
  <!-- Red bar under A -->
  <rect class="art-bar" x="0" y="37" width="32" height="3" rx="1"/>
  <!-- R -->
  <path class="art-letter" d="M38 36 L38 4 L52 4 Q60 4 60 14 Q60 21 54 23 L62 36 L56 36 L49 24 L43 24 L43 36 Z M43 20 L51 20 Q55 20 55 14 Q55 8 51 8 L43 8 Z"/>
  <!-- T -->
  <path class="art-letter" d="M68 36 L68 8 L58 8 L58 4 L83 4 L83 8 L73 8 L73 36 Z"/>
</svg>
