<svg xmlns="http://www.w3.org/2000/svg" viewBox="0 0 1994 747">
  <g transform="translate(10, 674) scale(1, -1)">
    <path fill="#1b2127" d="M704 0Q685 0 645 2Q603 4 585 4Q562 4 528 2Q494 0 477 0Q473 0 473.0 6.0Q473 12 477 12Q511 12 526.0 18.5Q541 25 541 42Q541 59 526 89L443 261H204L148 132Q134 99 134 77Q134 12 231 12Q236 12 236.0 6.0Q236 0 231 0Q213 0 179 2Q141 4 113 4Q87 4 51 2Q19 0 -1 0Q-5 0 -5.0 6.0Q-5 12 -1 12Q27 12 46.5 23.0Q66 34 84.0 61.0Q102 88 125 141L338 632Q339 635 345.0 635.0Q351 635 352 632L592 137Q627 64 650.5 38.0Q674 12 704 12Q709 12 709.0 6.0Q709 0 704 0ZM433 283 317 524 213 283Z"/>
    <path fill="#1b2127" transform="translate(681, 0)" d="M298 308Q278 304 253 304L204 306V81Q204 51 210.0 36.5Q216 22 232.5 17.0Q249 12 285 12Q288 12 288.0 6.0Q288 0 285 0Q254 0 236 1L164 2L94 1Q75 0 43 0Q40 0 40.0 6.0Q40 12 43 12Q79 12 96.0 17.0Q113 22 119.0 36.5Q125 51 125 81V544Q125 574 119.0 588.0Q113 602 96.5 607.5Q80 613 44 613Q42 613 42.0 619.0Q42 625 44 625L94 624Q138 622 164 622L237 625Q275 628 306 628Q389 628 434.0 593.0Q479 558 479 498Q479 444 448.0 400.0Q417 356 365 330Q448 209 504.5 141.0Q561 73 604.5 42.5Q648 12 690 12Q693 12 693.0 6.0Q693 0 690 0H547Q522 0 457.0 81.0Q392 162 298 308ZM275 611Q236 611 220.0 596.5Q204 582 204 542V331Q231 328 263 328Q335 328 366.0 361.5Q397 395 397 466Q397 546 366.0 578.5Q335 611 275 611Z"/>
    <path fill="#1b2127" transform="translate(1337, 0)" d="M50 460Q50 458 44.0 458.0Q38 458 38 461Q42 490 47.0 552.5Q52 615 52 647Q52 652 58.0 652.0Q64 652 64 647Q64 625 119 625Q205 622 320 622Q379 622 445 624L513 625Q550 625 567.0 630.0Q584 635 589 650Q590 654 595.5 654.0Q601 654 601 650Q598 621 594.5 559.5Q591 498 591 461Q591 458 585.5 458.5Q580 459 580 461Q573 538 540.0 571.5Q507 605 442 605Q405 605 389.0 600.5Q373 596 367.0 583.5Q361 571 361 542V81Q361 50 367.5 36.0Q374 22 393.0 17.0Q412 12 454 12Q456 12 456.0 6.0Q456 0 454 0Q419 0 399 1L320 2L243 1Q223 0 187 0Q184 0 184.0 6.0Q184 12 187 12Q228 12 247.5 17.0Q267 22 274.0 36.5Q281 51 281 81V544Q281 572 275.0 584.5Q269 597 252.5 601.0Q236 605 199 605Q137 605 102.0 571.0Q67 537 50 460Z"/>
  </g>
  <rect fill="#B91C1C" x="5" y="689" width="1984" height="55" rx="2"/>
</svg>
