<svg xmlns="http://www.w3.org/2000/svg" viewBox="-18 12 760 760">
  <!-- ART favicon: Cormorant Garamond Medium "A" with red underline bar -->
  <g transform="translate(10, 674) scale(1, -1)">
    <path fill="#B91C1C" d="M704 0Q685 0 645 2Q603 4 585 4Q562 4 528 2Q494 0 477 0Q473 0 473.0 6.0Q473 12 477 12Q511 12 526.0 18.5Q541 25 541 42Q541 59 526 89L443 261H204L148 132Q134 99 134 77Q134 12 231 12Q236 12 236.0 6.0Q236 0 231 0Q213 0 179 2Q141 4 113 4Q87 4 51 2Q19 0 -1 0Q-5 0 -5.0 6.0Q-5 12 -1 12Q27 12 46.5 23.0Q66 34 84.0 61.0Q102 88 125 141L338 632Q339 635 345.0 635.0Q351 635 352 632L592 137Q627 64 650.5 38.0Q674 12 704 12Q709 12 709.0 6.0Q709 0 704 0ZM433 283 317 524 213 283Z"/>
  </g>
  <rect fill="#B91C1C" x="5" y="689" width="714" height="50" rx="2"/>
</svg>
