<svg xmlns="http://www.w3.org/2000/svg" viewBox="0 0 354 354"><style>.ar{fill:#1A3057}@media (prefers-color-scheme:dark){.ar{fill:#CBA648}}</style><path class="ar" transform="translate(6,0)" d="M5 4L304 5L305 12L310 16L309 28L300 37L299 41L293 46L290 52L332 53L333 57L337 60L337 66L332 65L330 67L334 70L334 72L330 74L327 79L322 81L319 80L317 82L319 87L322 85L323 86L324 91L318 94L320 98L320 103L313 99L312 100L311 103L313 105L313 108L307 119L307 123L304 125L309 129L307 134L310 139L307 142L302 142L300 151L294 151L298 157L298 161L293 166L283 171L283 185L280 189L276 190L278 194L278 198L275 202L277 209L271 214L271 219L266 219L262 224L258 226L258 230L261 234L259 236L251 237L253 240L255 239L256 245L254 249L249 250L250 253L247 255L243 263L244 267L248 271L245 275L243 273L238 274L238 276L243 277L246 282L242 285L237 283L236 284L239 290L233 294L239 301L239 303L240 304L242 302L244 305L244 307L238 315L238 319L240 321L244 319L245 323L242 326L242 335L235 337L240 342L237 348L203 349L158 347L43 347L43 296L41 294L38 295L36 292L32 295L28 293L26 295L21 296L13 286L16 105L4 5Z"/></svg>
